<svg id="svg" version="1.1" width="400" height="451.5815085158151" xmlns="http://www.w3.org/2000/svg" xmlns:xlink="http://www.w3.org/1999/xlink" style="display: block;"><g id="svgg"><path id="path0" d="M250.730 106.079 C 220.465 109.059,207.252 150.829,225.834 184.786 L 227.095 187.091 226.556 188.355 C 224.175 193.938,228.614 200.526,234.712 200.459 C 246.160 200.332,246.613 184.088,235.199 183.006 L 233.090 182.806 230.939 178.521 C 221.827 160.367,222.794 137.728,233.282 123.724 C 240.187 114.503,253.732 110.763,263.098 115.491 C 270.480 119.217,277.291 130.294,278.603 140.708 C 278.800 142.271,278.945 142.560,279.643 142.770 C 281.553 143.347,285.686 144.661,286.158 144.843 C 286.729 145.062,286.730 145.168,286.125 140.470 C 283.795 122.376,271.562 107.802,257.409 106.260 C 253.649 105.851,253.179 105.838,250.730 106.079 M244.191 143.085 C 235.445 145.215,234.647 156.797,243.026 159.981 C 246.763 161.401,251.305 159.863,253.298 156.505 L 254.177 155.023 259.530 155.183 C 293.425 156.197,320.446 186.600,306.137 207.624 C 299.374 217.561,287.128 220.528,272.903 215.676 L 269.894 214.649 268.848 215.639 C 268.273 216.184,266.736 217.444,265.432 218.441 L 263.062 220.252 264.297 220.778 C 291.378 232.325,318.314 218.602,317.178 193.836 C 316.060 169.477,290.294 149.017,259.098 147.718 L 253.963 147.504 252.095 145.636 C 249.785 143.326,246.954 142.412,244.191 143.085 M207.137 164.422 C 192.667 176.779,187.925 194.518,195.198 209.083 C 201.306 221.313,217.795 227.475,234.387 223.727 C 253.971 219.303,269.710 207.543,277.983 191.154 C 278.685 189.763,279.192 189.132,279.608 189.132 C 286.149 189.132,289.063 178.786,283.848 174.074 C 275.632 166.652,265.060 176.963,271.192 186.417 C 272.074 187.776,266.715 195.568,261.272 200.842 C 242.414 219.116,214.504 222.928,203.735 208.701 C 195.137 197.344,197.899 182.220,210.543 171.413 C 211.525 170.575,212.277 169.729,212.216 169.535 C 212.154 169.340,211.705 167.656,211.217 165.793 C 210.134 161.658,210.306 161.716,207.137 164.422 " stroke="none" fill="#7749bd" fill-rule="evenodd"></path><path id="path1" d="M298.459 171.452 C 299.064 172.076,299.633 172.587,299.722 172.587 C 299.811 172.587,299.389 172.076,298.783 171.452 C 298.178 170.827,297.610 170.316,297.521 170.316 C 297.432 170.316,297.854 170.827,298.459 171.452 M191.803 195.620 C 191.803 196.245,191.870 196.500,191.951 196.188 C 192.033 195.876,192.033 195.365,191.951 195.053 C 191.870 194.740,191.803 194.996,191.803 195.620 M266.489 206.732 L 265.207 208.110 266.586 206.828 C 267.344 206.123,267.964 205.502,267.964 205.449 C 267.964 205.204,267.682 205.449,266.489 206.732 M205.353 210.706 C 205.958 211.330,206.526 211.841,206.616 211.841 C 206.705 211.841,206.282 211.330,205.677 210.706 C 205.072 210.081,204.504 209.570,204.414 209.570 C 204.325 209.570,204.748 210.081,205.353 210.706 " stroke="none" fill="#9571cc" fill-rule="evenodd"></path><path id="path2" d="M178.340 4.298 C 181.211 46.374,169.650 71.992,138.661 92.223 C 131.099 97.160,126.633 99.603,100.568 113.067 C 53.032 137.621,29.535 160.603,13.988 197.750 C -18.429 275.204,7.140 365.096,76.561 417.736 C 83.488 422.988,94.537 430.419,93.560 429.168 C 93.364 428.916,92.339 427.612,91.283 426.270 C 33.807 353.187,77.392 243.550,169.505 229.507 C 171.468 229.208,173.113 228.928,173.161 228.885 C 173.209 228.842,172.294 227.289,171.128 225.433 C 135.641 168.953,169.792 93.826,235.848 83.061 C 244.082 81.719,259.130 81.470,262.725 82.616 C 263.336 82.811,263.589 83.039,248.183 69.565 C 217.785 42.983,197.629 23.296,181.856 4.785 C 179.918 2.510,178.277 0.649,178.211 0.649 C 178.145 0.649,178.203 2.291,178.340 4.298 M342.692 156.247 C 345.190 164.604,345.342 181.786,343.024 193.787 C 336.620 226.945,311.397 255.361,279.643 265.191 C 278.662 265.495,277.662 265.806,277.421 265.883 C 277.136 265.974,277.767 266.900,279.228 268.534 C 327.452 322.494,319.645 405.583,262.301 448.685 C 260.598 449.965,259.205 451.052,259.205 451.102 C 259.205 451.377,267.887 448.381,273.317 446.232 C 330.443 423.625,375.487 376.376,392.699 321.006 C 408.735 269.421,397.973 222.994,358.671 174.209 C 352.152 166.117,342.348 155.097,342.692 156.247 " stroke="none" fill="#29a9e1" fill-rule="evenodd"></path><path id="path3" d="" stroke="none" fill="#a88bd4" fill-rule="evenodd"></path><path id="path4" d="M178.502 9.084 C 178.502 9.708,178.569 9.964,178.650 9.651 C 178.732 9.339,178.732 8.828,178.650 8.516 C 178.569 8.204,178.502 8.459,178.502 9.084 M197.405 22.060 C 198.102 22.774,198.745 23.358,198.834 23.358 C 198.923 23.358,198.426 22.774,197.729 22.060 C 197.032 21.346,196.389 20.762,196.300 20.762 C 196.211 20.762,196.708 21.346,197.405 22.060 M212.814 37.409 C 212.814 37.465,213.289 37.939,213.869 38.463 L 214.923 39.416 213.970 38.362 C 213.082 37.379,212.814 37.158,212.814 37.409 M219.303 43.633 C 219.908 44.258,220.476 44.769,220.565 44.769 C 220.654 44.769,220.232 44.258,219.627 43.633 C 219.022 43.009,218.453 42.498,218.364 42.498 C 218.275 42.498,218.697 43.009,219.303 43.633 M247.612 81.985 C 248.105 82.059,248.835 82.057,249.234 81.980 C 249.633 81.903,249.230 81.842,248.337 81.845 C 247.445 81.847,247.119 81.910,247.612 81.985 M252.478 81.985 C 252.971 82.059,253.701 82.057,254.100 81.980 C 254.499 81.903,254.096 81.842,253.204 81.845 C 252.311 81.847,251.985 81.910,252.478 81.985 M45.255 150.527 C 43.120 152.668,41.446 154.420,41.535 154.420 C 41.624 154.420,43.444 152.668,45.580 150.527 C 47.715 148.386,49.390 146.634,49.300 146.634 C 49.211 146.634,47.391 148.386,45.255 150.527 M342.708 156.448 C 342.580 156.671,342.598 156.742,342.748 156.605 C 342.898 156.469,343.469 156.761,344.016 157.254 L 345.012 158.151 344.059 157.097 C 342.968 155.889,343.017 155.912,342.708 156.448 M344.607 172.425 C 344.611 173.139,344.677 173.392,344.755 172.989 C 344.833 172.585,344.830 172.001,344.748 171.691 C 344.667 171.381,344.604 171.711,344.607 172.425 M344.607 179.238 C 344.611 179.951,344.677 180.205,344.755 179.802 C 344.833 179.398,344.830 178.814,344.748 178.504 C 344.667 178.194,344.604 178.524,344.607 179.238 M0.082 260.341 C 0.085 261.054,0.152 261.308,0.229 260.905 C 0.307 260.501,0.304 259.917,0.223 259.607 C 0.142 259.297,0.078 259.627,0.082 260.341 M98.114 267.397 L 97.161 268.451 98.216 267.498 C 99.199 266.610,99.419 266.342,99.169 266.342 C 99.113 266.342,98.638 266.817,98.114 267.397 M277.372 266.768 C 277.372 266.824,277.847 267.298,278.427 267.823 L 279.481 268.775 278.528 267.721 C 277.640 266.738,277.372 266.518,277.372 266.768 M399.768 272.344 C 399.771 273.236,399.834 273.562,399.908 273.069 C 399.983 272.576,399.981 271.846,399.904 271.447 C 399.827 271.048,399.766 271.452,399.768 272.344 M0.082 273.317 C 0.085 274.031,0.152 274.285,0.229 273.881 C 0.307 273.478,0.304 272.894,0.223 272.583 C 0.142 272.273,0.078 272.603,0.082 273.317 M399.764 280.292 C 399.764 281.095,399.827 281.423,399.905 281.022 C 399.982 280.620,399.982 279.964,399.905 279.562 C 399.827 279.161,399.764 279.489,399.764 280.292 M310.908 350.852 C 310.909 352.814,310.962 353.575,311.027 352.543 C 311.091 351.510,311.091 349.905,311.025 348.974 C 310.960 348.044,310.907 348.889,310.908 350.852 M65.300 350.852 C 65.302 351.744,65.365 352.070,65.440 351.577 C 65.514 351.084,65.512 350.354,65.435 349.955 C 65.358 349.556,65.297 349.959,65.300 350.852 M349.858 393.917 L 348.905 394.972 349.959 394.019 C 350.942 393.131,351.163 392.863,350.912 392.863 C 350.856 392.863,350.382 393.337,349.858 393.917 M53.041 397.080 C 53.738 397.794,54.381 398.378,54.471 398.378 C 54.560 398.378,54.063 397.794,53.366 397.080 C 52.669 396.367,52.026 395.783,51.936 395.783 C 51.847 395.783,52.344 396.367,53.041 397.080 M58.719 402.758 C 59.688 403.739,60.554 404.542,60.643 404.542 C 60.732 404.542,60.012 403.739,59.043 402.758 C 58.074 401.776,57.208 400.973,57.119 400.973 C 57.029 400.973,57.749 401.776,58.719 402.758 M339.152 404.623 L 338.200 405.677 339.254 404.724 C 340.237 403.836,340.457 403.569,340.207 403.569 C 340.151 403.569,339.676 404.043,339.152 404.623 " stroke="none" fill="#5ebee8" fill-rule="evenodd"></path><path id="path5" d="M229.991 116.058 L 228.873 117.275 230.089 116.157 C 231.222 115.116,231.455 114.842,231.207 114.842 C 231.153 114.842,230.606 115.389,229.991 116.058 M236.903 151.663 C 236.906 152.376,236.973 152.630,237.050 152.227 C 237.128 151.823,237.125 151.239,237.044 150.929 C 236.962 150.619,236.899 150.949,236.903 151.663 M309.902 195.296 C 309.902 196.099,309.965 196.427,310.042 196.026 C 310.120 195.624,310.120 194.968,310.042 194.566 C 309.965 194.165,309.902 194.493,309.902 195.296 M302.983 211.111 L 301.865 212.328 303.082 211.210 C 303.751 210.595,304.298 210.047,304.298 209.993 C 304.298 209.745,304.024 209.979,302.983 211.111 M225.872 217.255 C 226.184 217.337,226.695 217.337,227.007 217.255 C 227.320 217.174,227.064 217.107,226.440 217.107 C 225.815 217.107,225.560 217.174,225.872 217.255 M284.919 217.913 C 285.412 217.988,286.142 217.986,286.541 217.909 C 286.940 217.832,286.537 217.771,285.645 217.773 C 284.753 217.776,284.426 217.839,284.919 217.913 M223.439 225.052 C 224.019 225.124,224.968 225.124,225.547 225.052 C 226.127 224.980,225.653 224.921,224.493 224.921 C 223.333 224.921,222.859 224.980,223.439 225.052 " stroke="none" fill="#bea5de" fill-rule="evenodd"></path><path id="path6" d="M224.331 260.077 C 213.562 261.473,202.366 267.557,190.103 278.675 L 187.343 281.177 185.399 279.415 C 173.782 268.883,161.744 262.098,152.071 260.630 C 131.692 257.538,123.920 277.527,131.796 312.777 C 131.839 312.968,129.611 313.886,126.845 314.816 C 96.894 324.891,84.730 340.911,95.533 356.050 C 101.292 364.121,112.680 371.287,127.494 376.160 C 129.546 376.835,131.326 377.475,131.450 377.583 C 131.574 377.690,131.187 380.199,130.590 383.159 C 125.436 408.713,130.651 426.875,143.951 429.694 C 154.639 431.958,171.118 424.766,184.852 411.842 L 187.547 409.306 189.069 410.756 C 206.065 426.944,224.035 433.802,234.642 428.149 C 244.949 422.655,248.644 403.998,243.945 381.174 C 243.560 379.306,243.223 377.641,243.196 377.473 C 243.169 377.306,243.950 376.882,244.931 376.533 C 245.912 376.183,248.540 375.250,250.770 374.459 C 267.456 368.547,280.148 358.216,282.385 348.725 C 285.397 335.945,272.232 323.126,247.689 314.942 C 245.012 314.049,242.796 313.295,242.765 313.266 C 242.733 313.236,242.923 312.192,243.188 310.945 C 249.265 282.303,244.035 263.107,229.405 260.363 C 226.721 259.859,226.227 259.832,224.331 260.077 M153.587 268.979 C 161.089 270.852,171.454 277.249,180.122 285.358 L 181.695 286.829 180.791 287.906 C 180.293 288.498,178.237 290.911,176.220 293.268 C 174.204 295.625,171.008 299.618,169.118 302.142 C 167.228 304.666,165.582 306.845,165.460 306.984 C 165.338 307.122,163.351 307.456,161.045 307.726 C 154.890 308.446,150.999 309.043,145.080 310.178 C 142.173 310.736,139.724 311.122,139.639 311.036 C 138.751 310.148,136.905 298.044,136.677 291.613 C 136.011 272.861,141.218 265.892,153.587 268.979 M230.525 268.860 C 237.482 272.463,239.749 288.232,235.987 306.863 C 235.540 309.077,235.109 310.993,235.030 311.122 C 234.951 311.250,233.314 311.012,231.393 310.593 C 227.202 309.679,219.090 308.390,213.318 307.721 C 210.703 307.418,209.030 307.078,208.885 306.821 C 207.716 304.747,200.078 295.120,193.877 287.906 L 192.944 286.821 194.963 284.952 C 208.787 272.154,223.782 265.369,230.525 268.860 M190.335 295.945 C 193.484 299.553,198.540 305.874,198.540 306.203 C 198.540 306.315,193.431 306.407,187.186 306.407 C 180.941 306.407,175.831 306.360,175.831 306.303 C 175.831 305.898,186.988 292.620,187.327 292.620 C 187.385 292.620,188.738 294.116,190.335 295.945 M201.747 314.574 L 204.792 314.782 207.445 318.867 C 212.074 325.997,217.853 336.030,220.974 342.356 L 222.384 345.215 220.438 348.999 C 216.457 356.737,210.497 367.029,206.590 372.912 L 204.866 375.507 202.433 375.766 C 199.145 376.116,176.778 376.195,172.837 375.870 L 169.679 375.609 166.212 370.205 C 161.953 363.567,157.763 356.289,154.546 349.943 L 152.111 345.141 155.004 339.562 C 159.266 331.341,166.537 319.064,169.404 315.248 C 170.182 314.212,190.282 313.793,201.747 314.574 M159.286 316.123 C 159.286 316.202,158.433 317.626,157.391 319.286 C 155.177 322.811,152.289 327.817,149.897 332.279 C 148.964 334.019,148.089 335.442,147.952 335.442 C 147.587 335.442,141.768 319.977,141.768 319.006 C 141.768 318.632,155.644 316.113,158.232 316.016 C 158.812 315.995,159.286 316.043,159.286 316.123 M222.602 316.975 C 229.238 318.089,232.247 318.733,232.631 319.123 C 233.049 319.544,227.203 335.145,226.554 335.341 C 226.402 335.387,225.408 333.805,224.346 331.826 C 222.561 328.500,216.970 318.938,215.601 316.869 L 215.011 315.977 215.834 315.977 C 216.286 315.977,219.332 316.426,222.602 316.975 M135.625 325.567 C 137.416 330.881,139.422 336.063,141.749 341.384 L 143.425 345.217 141.168 350.468 C 138.619 356.396,137.045 360.508,135.245 365.937 L 134.007 369.667 133.008 369.583 C 129.725 369.307,116.511 363.425,111.089 359.827 C 103.244 354.621,98.613 348.096,99.609 343.651 C 101.346 335.898,112.550 327.829,129.278 322.283 C 134.480 320.559,133.822 320.219,135.625 325.567 M245.271 322.420 C 262.838 328.341,274.936 337.555,274.936 345.012 C 274.936 352.676,262.840 362.079,245.265 368.075 C 240.469 369.711,241.008 369.912,239.726 366.015 C 238.459 362.166,234.651 352.626,232.721 348.467 C 231.012 344.784,231.021 345.232,232.581 341.856 C 234.348 338.032,237.802 329.196,239.242 324.818 C 240.649 320.540,240.211 320.715,245.271 322.420 M183.617 328.488 C 175.899 330.154,170.316 337.090,170.316 345.012 C 170.316 360.071,188.602 367.587,199.193 356.880 C 211.009 344.937,200.039 324.941,183.617 328.488 M229.138 360.204 C 232.299 368.228,233.276 371.240,232.806 371.509 C 231.871 372.043,215.445 374.836,215.122 374.515 C 215.053 374.447,215.583 373.474,216.299 372.354 C 218.428 369.023,220.333 365.767,223.514 360.016 C 225.167 357.028,226.611 354.584,226.723 354.587 C 226.835 354.589,227.921 357.117,229.138 360.204 M150.687 359.530 C 152.886 363.572,157.303 371.063,159.130 373.850 L 159.745 374.787 157.813 374.560 C 149.935 373.633,141.768 372.115,141.768 371.577 C 141.768 370.468,147.557 354.909,147.970 354.907 C 148.081 354.907,149.303 356.987,150.687 359.530 M235.975 381.454 C 239.833 398.415,238.340 414.641,232.421 420.098 C 226.277 425.761,211.681 420.338,196.375 406.706 C 192.746 403.474,192.708 404.279,196.710 399.573 C 198.559 397.399,201.880 393.205,204.091 390.253 C 206.301 387.300,208.402 384.498,208.759 384.026 C 209.377 383.207,209.683 383.134,215.247 382.477 C 221.520 381.736,228.968 380.540,232.117 379.769 C 235.447 378.953,235.402 378.933,235.975 381.454 M143.130 380.191 C 147.267 381.042,156.268 382.361,161.311 382.854 L 165.444 383.259 168.974 387.980 C 172.581 392.804,176.722 397.861,180.146 401.622 L 182.065 403.731 180.002 405.621 C 164.262 420.049,147.493 426.152,141.490 419.639 C 135.935 413.613,134.873 393.951,139.347 379.968 C 139.514 379.447,139.518 379.447,143.130 380.191 M198.783 384.162 C 198.356 385.327,188.061 397.729,187.523 397.729 C 186.958 397.729,176.156 384.883,176.156 384.212 C 176.156 384.063,181.265 383.942,187.510 383.942 C 193.755 383.942,198.828 384.041,198.783 384.162 " stroke="none" fill="#01d7ff" fill-rule="evenodd"></path><path id="path7" d="M232.279 270.397 C 232.884 271.022,233.453 271.533,233.542 271.533 C 233.631 271.533,233.209 271.022,232.603 270.397 C 231.998 269.773,231.430 269.262,231.341 269.262 C 231.251 269.262,231.674 269.773,232.279 270.397 M136.653 285.158 C 136.653 285.783,136.719 286.038,136.801 285.726 C 136.883 285.414,136.883 284.903,136.801 284.590 C 136.719 284.278,136.653 284.534,136.653 285.158 M237.551 285.645 C 237.555 286.358,237.621 286.612,237.699 286.209 C 237.777 285.805,237.774 285.221,237.692 284.911 C 237.611 284.601,237.548 284.931,237.551 285.645 M128.594 289.051 C 128.594 291.460,128.645 292.445,128.708 291.241 C 128.770 290.036,128.770 288.066,128.708 286.861 C 128.645 285.657,128.594 286.642,128.594 289.051 M245.708 289.862 C 245.708 292.360,245.759 293.339,245.821 292.038 C 245.883 290.736,245.882 288.693,245.820 287.496 C 245.758 286.299,245.707 287.364,245.708 289.862 M193.674 287.855 C 193.674 287.911,194.148 288.385,194.728 288.909 L 195.783 289.862 194.830 288.808 C 193.942 287.825,193.674 287.604,193.674 287.855 M179.542 289.132 L 178.589 290.187 179.643 289.234 C 180.223 288.710,180.697 288.235,180.697 288.179 C 180.697 287.929,180.430 288.149,179.542 289.132 M136.659 293.431 C 136.663 294.144,136.729 294.398,136.807 293.995 C 136.884 293.591,136.882 293.007,136.800 292.697 C 136.719 292.387,136.656 292.717,136.659 293.431 M185.705 294.323 L 184.753 295.377 185.807 294.424 C 186.387 293.900,186.861 293.426,186.861 293.370 C 186.861 293.119,186.594 293.340,185.705 294.323 M237.551 294.404 C 237.555 295.118,237.621 295.371,237.699 294.968 C 237.777 294.564,237.774 293.980,237.692 293.670 C 237.611 293.360,237.548 293.690,237.551 294.404 M245.331 297.486 C 245.331 298.110,245.398 298.366,245.479 298.054 C 245.561 297.741,245.561 297.230,245.479 296.918 C 245.398 296.606,245.331 296.861,245.331 297.486 M176.221 305.661 C 175.489 306.392,175.832 306.569,177.859 306.508 L 179.886 306.447 177.995 306.329 C 176.389 306.229,176.163 306.140,176.494 305.741 C 176.965 305.174,176.766 305.116,176.221 305.661 M195.208 306.479 C 195.784 306.551,196.805 306.552,197.479 306.482 C 198.152 306.411,197.680 306.353,196.431 306.351 C 195.182 306.350,194.632 306.407,195.208 306.479 M184.509 314.272 C 185.981 314.332,188.390 314.332,189.862 314.272 C 191.334 314.212,190.130 314.163,187.186 314.163 C 184.242 314.163,183.037 314.212,184.509 314.272 M174.615 314.588 C 175.105 314.662,175.908 314.662,176.399 314.588 C 176.890 314.513,176.488 314.452,175.507 314.452 C 174.526 314.452,174.124 314.513,174.615 314.588 M198.140 314.590 C 198.724 314.663,199.599 314.661,200.087 314.587 C 200.574 314.513,200.097 314.454,199.027 314.456 C 197.956 314.458,197.557 314.518,198.140 314.590 M169.542 314.945 C 169.451 315.091,169.808 315.148,170.333 315.071 C 170.859 314.994,171.290 314.874,171.290 314.805 C 171.290 314.558,169.702 314.685,169.542 314.945 M203.893 314.914 C 204.250 315.002,204.761 315.241,205.028 315.444 C 205.452 315.767,205.457 315.741,205.070 315.247 C 204.825 314.935,204.314 314.697,203.934 314.717 C 203.279 314.753,203.277 314.763,203.893 314.914 M98.439 330.333 L 97.486 331.387 98.540 330.434 C 99.523 329.546,99.744 329.278,99.493 329.278 C 99.437 329.278,98.963 329.753,98.439 330.333 M198.216 331.975 C 198.216 332.031,198.690 332.505,199.270 333.029 L 200.324 333.982 199.372 332.928 C 198.483 331.945,198.216 331.724,198.216 331.975 M204.162 345.012 C 204.163 346.261,204.222 346.732,204.292 346.059 C 204.362 345.386,204.361 344.364,204.289 343.788 C 204.218 343.212,204.160 343.763,204.162 345.012 M170.074 345.012 C 170.077 345.726,170.144 345.980,170.221 345.576 C 170.299 345.173,170.296 344.589,170.215 344.278 C 170.134 343.968,170.070 344.298,170.074 345.012 M274.859 345.012 C 274.862 345.726,274.929 345.980,275.006 345.576 C 275.084 345.173,275.081 344.589,275.000 344.278 C 274.919 343.968,274.855 344.298,274.859 345.012 M269.736 354.339 L 268.127 356.042 269.830 354.432 C 271.412 352.936,271.682 352.636,271.440 352.636 C 271.388 352.636,270.622 353.402,269.736 354.339 M199.006 357.259 L 198.054 358.313 199.108 357.360 C 199.688 356.836,200.162 356.362,200.162 356.306 C 200.162 356.055,199.895 356.276,199.006 357.259 M275.416 360.016 L 273.317 362.206 275.507 360.107 C 277.541 358.157,277.845 357.826,277.606 357.826 C 277.556 357.826,276.571 358.812,275.416 360.016 M173.485 375.904 C 174.068 375.976,174.944 375.975,175.432 375.901 C 175.919 375.827,175.442 375.768,174.371 375.770 C 173.301 375.771,172.902 375.832,173.485 375.904 M198.465 375.904 C 199.048 375.976,199.924 375.975,200.411 375.901 C 200.899 375.827,200.422 375.768,199.351 375.770 C 198.281 375.771,197.882 375.832,198.465 375.904 M184.006 376.235 C 185.559 376.294,188.186 376.294,189.846 376.235 C 191.505 376.176,190.235 376.128,187.024 376.128 C 183.812 376.127,182.454 376.175,184.006 376.235 M139.389 379.778 C 139.270 379.897,139.175 380.153,139.178 380.346 C 139.181 380.584,139.260 380.579,139.421 380.329 C 139.552 380.127,139.951 379.889,140.308 379.799 C 140.936 379.643,140.935 379.636,140.281 379.600 C 139.909 379.579,139.508 379.659,139.389 379.778 M176.890 384.012 C 177.383 384.087,178.113 384.085,178.512 384.008 C 178.911 383.931,178.508 383.870,177.616 383.872 C 176.723 383.875,176.397 383.938,176.890 384.012 M196.522 384.020 C 197.905 384.098,198.488 384.251,198.337 384.494 C 198.203 384.711,198.264 384.761,198.490 384.621 C 199.381 384.071,198.713 383.784,196.675 383.842 L 194.485 383.904 196.522 384.020 M245.655 392.539 C 245.655 393.163,245.722 393.418,245.804 393.106 C 245.885 392.794,245.885 392.283,245.804 391.971 C 245.722 391.659,245.655 391.914,245.655 392.539 M237.887 395.620 C 237.889 396.513,237.952 396.839,238.027 396.346 C 238.101 395.853,238.099 395.123,238.022 394.724 C 237.945 394.325,237.884 394.728,237.887 395.620 M136.653 396.107 C 136.653 396.732,136.719 396.987,136.801 396.675 C 136.883 396.363,136.883 395.852,136.801 395.539 C 136.719 395.227,136.653 395.483,136.653 396.107 M246.032 399.838 C 246.033 402.336,246.084 403.315,246.145 402.013 C 246.207 400.712,246.207 398.668,246.145 397.472 C 246.082 396.275,246.032 397.340,246.032 399.838 M128.571 397.729 C 128.571 398.889,128.630 399.363,128.702 398.783 C 128.774 398.204,128.774 397.255,128.702 396.675 C 128.630 396.095,128.571 396.569,128.571 397.729 M179.075 400.750 C 179.075 400.806,179.550 401.281,180.130 401.805 L 181.184 402.758 180.231 401.703 C 179.343 400.720,179.075 400.500,179.075 400.750 M128.568 404.704 C 128.569 405.775,128.630 406.173,128.702 405.590 C 128.774 405.007,128.773 404.131,128.699 403.644 C 128.625 403.156,128.566 403.633,128.568 404.704 M237.882 404.217 C 237.882 405.020,237.946 405.349,238.023 404.947 C 238.100 404.546,238.100 403.889,238.023 403.487 C 237.946 403.086,237.882 403.414,237.882 404.217 M180.520 404.947 L 179.238 406.326 180.616 405.044 C 181.899 403.851,182.144 403.569,181.899 403.569 C 181.846 403.569,181.225 404.189,180.520 404.947 M185.875 410.949 L 184.428 412.490 185.954 411.059 C 187.325 409.773,187.539 409.674,188.062 410.085 C 188.594 410.503,188.606 410.493,188.200 409.976 C 187.580 409.184,187.499 409.218,185.875 410.949 M147.526 422.295 C 148.106 422.367,149.055 422.367,149.635 422.295 C 150.215 422.223,149.740 422.164,148.581 422.164 C 147.421 422.164,146.946 422.223,147.526 422.295 M224.729 422.294 C 225.305 422.366,226.327 422.367,227.000 422.297 C 227.673 422.227,227.202 422.168,225.953 422.166 C 224.704 422.165,224.153 422.222,224.729 422.294 M147.532 430.405 C 148.115 430.478,148.991 430.476,149.479 430.402 C 149.966 430.328,149.489 430.269,148.418 430.271 C 147.348 430.273,146.949 430.333,147.532 430.405 M224.899 430.407 C 225.568 430.477,226.663 430.477,227.332 430.407 C 228.001 430.337,227.453 430.279,226.115 430.279 C 224.777 430.279,224.230 430.337,224.899 430.407 " stroke="none" fill="#46e2ff" fill-rule="evenodd"></path><path id="path8" d="M178.553 14.112 C 178.553 16.431,178.605 17.338,178.667 16.126 C 178.730 14.914,178.730 13.016,178.666 11.909 C 178.603 10.801,178.552 11.792,178.553 14.112 M178.508 21.249 C 178.512 21.963,178.578 22.216,178.656 21.813 C 178.734 21.409,178.731 20.825,178.649 20.515 C 178.568 20.205,178.505 20.535,178.508 21.249 M205.353 30.008 C 208.114 32.774,210.446 35.036,210.536 35.036 C 210.625 35.036,208.439 32.774,205.677 30.008 C 202.916 27.242,200.584 24.980,200.494 24.980 C 200.405 24.980,202.592 27.242,205.353 30.008 M178.177 26.602 C 178.177 27.226,178.244 27.482,178.326 27.170 C 178.407 26.857,178.407 26.346,178.326 26.034 C 178.244 25.722,178.177 25.977,178.177 26.602 M250.203 81.975 C 250.515 82.057,251.026 82.057,251.338 81.975 C 251.650 81.894,251.395 81.827,250.770 81.827 C 250.146 81.827,249.891 81.894,250.203 81.975 M243.556 82.306 C 243.960 82.383,244.544 82.380,244.854 82.299 C 245.164 82.218,244.834 82.154,244.120 82.158 C 243.406 82.162,243.153 82.228,243.556 82.306 M256.857 82.306 C 257.261 82.383,257.844 82.380,258.155 82.299 C 258.465 82.218,258.135 82.154,257.421 82.158 C 256.707 82.162,256.453 82.228,256.857 82.306 M273.479 113.970 C 273.479 114.026,273.954 114.500,274.534 115.024 L 275.588 115.977 274.635 114.923 C 273.747 113.940,273.479 113.719,273.479 113.970 M257.664 147.507 C 257.976 147.588,258.487 147.588,258.800 147.507 C 259.112 147.425,258.856 147.358,258.232 147.358 C 257.607 147.358,257.352 147.425,257.664 147.507 M303.001 165.227 C 303.001 165.283,303.475 165.758,304.055 166.282 L 305.109 167.234 304.157 166.180 C 303.268 165.197,303.001 164.977,303.001 165.227 M344.276 168.694 C 344.276 169.319,344.343 169.574,344.425 169.262 C 344.506 168.950,344.506 168.439,344.425 168.127 C 344.343 167.814,344.276 168.070,344.276 168.694 M344.635 175.831 C 344.635 177.170,344.692 177.717,344.762 177.048 C 344.832 176.379,344.832 175.284,344.762 174.615 C 344.692 173.946,344.635 174.493,344.635 175.831 M243.709 191.727 C 243.709 192.352,243.775 192.607,243.857 192.295 C 243.939 191.983,243.939 191.472,243.857 191.160 C 243.775 190.848,243.709 191.103,243.709 191.727 M223.925 217.255 C 224.238 217.337,224.749 217.337,225.061 217.255 C 225.373 217.174,225.118 217.107,224.493 217.107 C 223.869 217.107,223.613 217.174,223.925 217.255 M0.088 257.908 C 0.088 258.710,0.152 259.039,0.229 258.637 C 0.306 258.236,0.306 257.579,0.229 257.178 C 0.152 256.776,0.088 257.105,0.088 257.908 M147.369 260.087 C 147.862 260.161,148.592 260.159,148.991 260.082 C 149.390 260.005,148.986 259.944,148.094 259.947 C 147.202 259.949,146.875 260.012,147.369 260.087 M101.207 264.315 L 99.108 266.504 101.298 264.405 C 103.332 262.455,103.636 262.125,103.397 262.125 C 103.347 262.125,102.362 263.110,101.207 264.315 M399.426 264.720 C 399.426 265.345,399.493 265.600,399.575 265.288 C 399.656 264.976,399.656 264.465,399.575 264.152 C 399.493 263.840,399.426 264.096,399.426 264.720 M225.547 268.188 C 225.860 268.270,226.371 268.270,226.683 268.188 C 226.995 268.106,226.740 268.040,226.115 268.040 C 225.491 268.040,225.235 268.106,225.547 268.188 M399.768 269.424 C 399.771 270.316,399.834 270.643,399.908 270.150 C 399.983 269.657,399.981 268.927,399.904 268.528 C 399.827 268.129,399.766 268.532,399.768 269.424 M0.088 275.750 C 0.088 276.553,0.152 276.882,0.229 276.480 C 0.306 276.079,0.306 275.422,0.229 275.020 C 0.152 274.619,0.088 274.947,0.088 275.750 M399.773 283.212 C 399.773 284.193,399.834 284.594,399.908 284.104 C 399.982 283.613,399.982 282.810,399.908 282.320 C 399.834 281.829,399.773 282.230,399.773 283.212 M136.696 289.213 C 136.697 290.998,136.751 291.686,136.817 290.743 C 136.883 289.801,136.882 288.341,136.815 287.499 C 136.749 286.658,136.695 287.429,136.696 289.213 M237.590 290.024 C 237.590 291.898,237.643 292.664,237.709 291.727 C 237.774 290.791,237.774 289.258,237.709 288.321 C 237.643 287.384,237.590 288.151,237.590 290.024 M185.011 306.162 C 186.402 306.223,188.592 306.223,189.877 306.161 C 191.162 306.100,190.024 306.050,187.348 306.050 C 184.672 306.051,183.620 306.101,185.011 306.162 M177.700 314.585 C 178.104 314.662,178.688 314.659,178.998 314.578 C 179.308 314.497,178.978 314.433,178.264 314.437 C 177.551 314.441,177.297 314.507,177.700 314.585 M195.543 314.585 C 195.947 314.662,196.531 314.659,196.841 314.578 C 197.151 314.497,196.821 314.433,196.107 314.437 C 195.393 314.441,195.140 314.507,195.543 314.585 M186.618 327.880 C 186.930 327.961,187.441 327.961,187.753 327.880 C 188.066 327.798,187.810 327.731,187.186 327.731 C 186.561 327.731,186.306 327.798,186.618 327.880 M275.737 330.333 C 276.532 331.180,277.226 331.873,277.278 331.873 C 277.521 331.873,277.264 331.582,275.831 330.238 L 274.290 328.792 275.737 330.333 M174.841 333.090 L 173.723 334.307 174.939 333.189 C 176.072 332.148,176.305 331.873,176.057 331.873 C 176.003 331.873,175.455 332.421,174.841 333.090 M269.897 336.172 C 271.242 337.604,271.533 337.862,271.533 337.618 C 271.533 337.566,270.839 336.873,269.992 336.077 L 268.451 334.631 269.897 336.172 M310.538 343.552 C 310.538 344.177,310.604 344.432,310.686 344.120 C 310.768 343.808,310.768 343.297,310.686 342.985 C 310.604 342.672,310.538 342.928,310.538 343.552 M65.624 344.363 C 65.626 345.255,65.689 345.582,65.764 345.089 C 65.839 344.596,65.837 343.866,65.760 343.467 C 65.683 343.068,65.622 343.471,65.624 344.363 M91.248 344.850 C 91.248 345.653,91.311 345.981,91.389 345.580 C 91.466 345.178,91.466 344.521,91.389 344.120 C 91.311 343.719,91.248 344.047,91.248 344.850 M174.209 356.306 C 174.209 356.362,174.684 356.836,175.264 357.360 L 176.318 358.313 175.365 357.259 C 174.477 356.276,174.209 356.055,174.209 356.306 M65.613 357.664 C 65.617 358.378,65.683 358.632,65.761 358.228 C 65.838 357.825,65.835 357.241,65.754 356.931 C 65.673 356.620,65.609 356.951,65.613 357.664 M176.727 375.899 C 177.131 375.976,177.715 375.973,178.025 375.892 C 178.335 375.811,178.005 375.747,177.291 375.751 C 176.577 375.755,176.324 375.821,176.727 375.899 M196.026 375.893 C 196.338 375.974,196.849 375.974,197.161 375.893 C 197.474 375.811,197.218 375.744,196.594 375.744 C 195.969 375.744,195.714 375.811,196.026 375.893 M184.672 384.345 C 186.054 384.406,188.317 384.406,189.700 384.345 C 191.083 384.284,189.951 384.234,187.186 384.234 C 184.420 384.234,183.289 384.284,184.672 384.345 M344.681 399.432 L 341.768 402.433 344.769 399.520 C 347.556 396.815,347.917 396.431,347.682 396.431 C 347.633 396.431,346.283 397.782,344.681 399.432 M237.911 400.000 C 237.911 401.695,237.966 402.388,238.032 401.541 C 238.099 400.693,238.099 399.307,238.032 398.459 C 237.966 397.612,237.911 398.305,237.911 400.000 M276.222 436.091 L 274.939 437.470 276.318 436.187 C 277.076 435.482,277.697 434.861,277.697 434.808 C 277.697 434.563,277.414 434.809,276.222 436.091 M273.302 439.011 L 272.019 440.389 273.398 439.107 C 274.157 438.402,274.777 437.781,274.777 437.728 C 274.777 437.483,274.494 437.728,273.302 439.011 " stroke="none" fill="#94d4f1" fill-rule="evenodd"></path><path id="path9" d="M-0.000 128.359 C -0.000 198.956,0.053 256.657,0.119 256.583 C 0.184 256.509,0.329 254.954,0.441 253.129 C 2.377 221.564,15.034 187.447,33.676 163.541 C 49.987 142.627,67.262 129.902,107.056 109.492 C 120.311 102.693,121.137 102.260,127.007 99.019 C 160.824 80.347,175.043 60.470,178.116 27.575 C 178.455 23.946,178.567 9.060,178.279 5.935 C 178.200 5.080,178.044 3.394,177.931 2.190 L 177.726 0.000 88.863 0.000 L 0.000 0.000 -0.000 128.359 M180.076 2.441 C 196.185 21.915,221.003 45.913,259.205 78.952 C 262.647 81.929,264.414 83.700,263.181 82.938 C 261.664 82.001,243.974 82.046,237.546 83.003 C 169.859 93.083,135.284 168.709,171.977 226.426 C 173.793 229.282,173.811 229.211,171.216 229.503 C 142.208 232.772,111.657 250.184,92.338 274.460 C 72.777 299.039,62.791 332.240,66.046 361.882 C 68.876 387.662,78.123 410.372,93.026 428.143 C 94.777 430.231,94.623 430.249,91.511 428.322 C 59.096 408.250,32.239 377.852,16.619 343.552 C 7.685 323.935,1.790 301.112,0.448 280.941 C 0.335 279.246,0.188 277.798,0.121 277.724 C 0.055 277.649,0.000 316.737,0.000 364.585 L 0.000 451.582 129.070 451.582 L 258.140 451.582 261.674 448.939 C 292.251 426.070,310.399 390.161,310.751 351.825 C 311.029 321.643,299.815 291.778,279.844 269.513 C 276.274 265.533,276.440 265.831,277.658 265.588 C 281.992 264.721,293.745 259.448,299.944 255.589 C 332.893 235.078,349.729 197.627,343.107 159.575 C 342.245 154.620,341.804 154.476,347.701 161.071 C 380.430 197.669,397.109 231.489,399.776 266.667 C 399.837 267.470,399.912 207.798,399.943 134.063 L 400.000 0.000 289.029 -0.000 L 178.057 -0.000 180.076 2.441 M259.000 106.242 C 273.747 109.366,285.272 124.651,286.690 142.962 L 286.870 145.291 283.176 144.142 C 281.144 143.510,279.319 142.949,279.122 142.895 C 278.924 142.841,278.514 141.434,278.211 139.768 C 274.240 117.969,258.951 108.347,241.809 116.859 C 224.435 125.487,219.436 156.780,231.741 179.886 L 233.123 182.482 235.053 182.671 C 244.966 183.642,247.109 196.710,237.919 200.148 C 230.725 202.840,223.479 195.571,226.309 188.500 L 226.827 187.205 224.380 182.248 C 215.289 163.831,214.563 143.391,222.416 126.937 C 229.488 112.121,245.091 103.295,259.000 106.242 M249.647 143.509 C 250.553 143.930,251.871 144.940,252.603 145.771 L 253.925 147.273 258.740 147.451 C 278.907 148.197,295.463 155.812,307.399 169.830 C 318.333 182.671,320.647 199.664,312.998 210.952 C 303.989 224.246,284.421 228.810,266.356 221.831 C 262.090 220.182,262.158 220.616,265.734 217.843 C 267.345 216.594,268.985 215.311,269.379 214.992 C 270.073 214.432,270.170 214.441,272.314 215.248 C 297.473 224.718,317.939 205.174,306.533 182.572 C 299.011 167.666,281.329 156.984,261.589 155.421 C 255.594 154.947,254.373 155.155,253.338 156.826 C 250.870 160.814,245.022 161.953,241.006 159.227 C 235.515 155.500,235.567 148.258,241.116 144.067 C 243.075 142.587,247.103 142.324,249.647 143.509 M211.491 165.938 L 212.536 169.995 211.459 170.857 C 193.231 185.437,195.501 210.309,215.590 216.123 C 219.673 217.305,229.438 217.230,234.225 215.980 C 248.907 212.148,262.990 201.702,270.104 189.368 L 271.587 186.798 270.949 186.100 C 263.618 178.073,276.260 166.455,284.133 173.984 C 289.288 178.915,286.202 189.366,279.566 189.449 C 279.199 189.454,278.617 190.220,277.897 191.646 C 259.701 227.674,205.367 237.162,193.787 206.333 C 188.191 191.434,193.861 174.602,208.326 163.167 C 210.475 161.469,210.301 161.316,211.491 165.938 M151.923 260.337 C 161.620 261.799,172.751 267.969,184.581 278.440 L 187.329 280.872 189.934 278.524 C 205.424 264.565,220.703 257.772,230.772 260.368 C 244.237 263.839,249.347 283.539,243.628 309.924 C 243.248 311.681,242.984 313.153,243.042 313.196 C 243.099 313.238,244.680 313.750,246.553 314.333 C 265.135 320.114,278.911 330.001,282.229 339.939 C 286.602 353.034,273.195 367.050,248.013 375.709 C 245.211 376.672,243.487 377.430,243.514 377.686 C 243.537 377.915,243.930 380.000,244.386 382.320 C 248.848 404.991,244.933 423.251,234.465 428.592 C 224.207 433.825,207.746 427.779,190.665 412.504 L 187.494 409.669 185.308 411.728 C 173.391 422.956,158.467 430.521,148.295 430.489 C 131.624 430.438,124.598 411.661,130.423 382.720 C 130.953 380.086,131.387 377.870,131.387 377.796 C 131.387 377.722,130.547 377.419,129.521 377.123 C 115.341 373.027,102.096 364.942,95.442 356.321 C 83.949 341.429,97.678 323.623,127.914 314.204 C 131.061 313.224,131.711 312.916,131.574 312.467 C 129.861 306.871,128.482 296.524,128.473 289.205 C 128.447 268.559,136.959 258.082,151.923 260.337 M145.569 268.643 C 141.766 269.538,139.527 272.386,137.966 278.312 C 136.107 285.371,136.792 299.766,139.457 309.665 L 139.810 310.974 144.276 310.074 C 149.383 309.044,158.514 307.674,162.435 307.348 L 165.096 307.127 168.273 302.874 C 171.634 298.375,176.782 292.077,179.634 288.973 C 181.698 286.728,181.700 287.151,179.616 285.180 C 167.923 274.121,153.028 266.887,145.569 268.643 M221.087 268.921 C 214.042 270.773,204.708 276.446,196.269 284.004 C 192.835 287.080,192.874 286.520,195.853 289.905 C 199.196 293.703,203.041 298.481,206.131 302.676 C 207.511 304.550,208.829 306.316,209.060 306.602 C 209.345 306.954,210.301 307.194,212.039 307.348 C 216.090 307.709,225.214 309.099,230.170 310.111 C 232.668 310.621,234.760 310.995,234.818 310.942 C 235.718 310.121,237.470 296.335,237.468 290.089 C 237.464 272.598,232.331 265.966,221.087 268.921 M399.651 286.375 C 399.637 287.222,399.584 288.135,399.532 288.402 C 399.480 288.670,399.331 290.057,399.201 291.484 C 398.877 295.043,397.279 304.433,396.269 308.715 C 381.207 372.549,330.898 426.460,264.882 449.508 L 259.043 451.547 329.521 451.564 L 400.000 451.582 400.000 368.208 C 400.000 322.352,399.927 284.834,399.838 284.834 C 399.749 284.834,399.664 285.527,399.651 286.375 M184.901 295.570 C 183.568 297.070,181.250 299.830,179.749 301.703 C 178.249 303.577,176.831 305.335,176.598 305.612 C 176.217 306.063,177.281 306.113,187.195 306.108 C 193.256 306.105,198.216 306.048,198.216 305.982 C 198.216 305.762,190.828 296.703,189.063 294.759 L 187.324 292.843 184.901 295.570 M175.669 314.668 C 173.528 314.804,171.313 314.936,170.748 314.960 C 169.127 315.029,161.198 327.749,154.745 340.631 L 152.390 345.333 153.303 347.119 C 161.193 362.554,169.035 375.152,170.955 375.476 C 177.036 376.504,204.139 375.870,205.107 374.677 C 207.233 372.059,215.182 358.601,219.176 350.857 L 222.186 345.024 220.043 340.963 C 215.637 332.610,211.351 325.227,207.120 318.702 L 204.785 315.102 202.717 314.891 C 199.429 314.555,179.949 314.395,175.669 314.668 M154.258 316.793 C 147.317 317.891,142.092 318.938,142.092 319.232 C 142.092 320.080,147.377 334.341,147.888 334.870 C 148.014 335.002,149.122 333.250,150.349 330.977 C 151.575 328.705,154.019 324.453,155.780 321.528 C 157.540 318.604,158.939 316.181,158.890 316.143 C 158.840 316.105,156.756 316.398,154.258 316.793 M215.410 316.165 C 215.410 316.203,216.267 317.600,217.315 319.269 C 219.470 322.701,223.979 330.537,225.255 333.067 C 226.503 335.541,226.563 335.498,228.407 330.822 C 231.087 324.025,232.633 319.209,232.181 319.060 C 230.703 318.573,215.410 315.934,215.410 316.165 M128.629 322.759 C 111.013 328.776,99.824 337.407,99.770 345.019 C 99.726 351.335,108.613 359.567,121.655 365.291 C 124.736 366.644,132.755 369.505,133.465 369.505 C 133.672 369.505,134.403 367.790,135.090 365.693 C 136.653 360.924,138.636 355.755,141.186 349.804 L 143.164 345.188 141.841 342.180 C 139.653 337.204,137.309 331.179,135.561 326.032 C 134.652 323.357,133.743 321.177,133.540 321.188 C 133.337 321.199,131.127 321.906,128.629 322.759 M240.557 321.597 C 240.492 321.807,240.264 322.563,240.050 323.277 C 239.227 326.020,235.432 335.887,233.475 340.369 L 231.427 345.060 233.176 348.929 C 235.321 353.672,238.714 362.220,239.929 365.937 C 240.424 367.453,240.923 368.807,241.037 368.944 C 241.610 369.631,254.525 364.457,260.016 361.341 C 277.769 351.265,279.082 341.370,263.987 331.413 C 257.495 327.131,240.985 320.214,240.557 321.597 M192.845 328.813 C 204.863 332.910,208.278 348.160,199.197 357.178 C 188.454 367.846,170.281 360.328,170.182 345.174 C 170.104 333.151,181.479 324.939,192.845 328.813 M224.358 358.899 C 223.155 361.133,220.665 365.492,218.825 368.585 C 216.985 371.679,215.507 374.240,215.541 374.278 C 215.757 374.523,232.479 371.651,232.851 371.306 C 233.103 371.072,228.195 357.981,227.001 355.703 C 226.548 354.840,226.538 354.853,224.358 358.899 M147.447 356.394 C 145.706 360.504,142.092 370.561,142.092 371.298 C 142.092 371.559,142.768 371.868,143.796 372.079 C 146.795 372.692,154.834 373.987,157.104 374.221 L 159.301 374.449 157.074 370.923 C 155.086 367.773,152.581 363.446,149.135 357.205 L 147.986 355.123 147.447 356.394 M234.063 379.619 C 231.874 380.249,220.429 382.133,215.734 382.637 C 212.968 382.934,210.390 383.239,210.003 383.315 C 209.575 383.399,208.592 384.464,207.486 386.043 C 204.707 390.010,199.878 396.205,196.483 400.158 L 193.423 403.722 195.549 405.673 C 211.454 420.267,227.197 425.937,232.999 419.159 C 237.048 414.428,239.080 400.012,237.207 389.294 C 235.509 379.582,235.397 379.235,234.063 379.619 M139.038 382.244 C 134.701 401.735,136.630 417.472,143.802 421.132 C 150.717 424.659,166.489 417.845,179.670 405.634 L 181.725 403.731 178.729 400.324 C 175.129 396.232,170.257 390.180,167.436 386.294 C 166.302 384.732,165.261 383.455,165.123 383.455 C 162.644 383.455,150.097 381.771,144.363 380.669 C 142.133 380.241,140.140 379.889,139.935 379.888 C 139.730 379.887,139.326 380.947,139.038 382.244 M178.688 387.340 C 180.032 389.039,182.574 392.070,184.336 394.074 L 187.539 397.719 189.740 395.210 C 191.930 392.714,196.447 387.109,197.787 385.225 L 198.489 384.238 187.366 384.243 L 176.243 384.249 178.688 387.340 " stroke="none" fill="#fffeff" fill-rule="evenodd"></path></g></svg>